<?xml version="1.0" encoding="UTF-8"?>
<svg id="Layer_2" data-name="Layer 2" xmlns="http://www.w3.org/2000/svg" viewBox="0 0 41 41"  width="41" height="41">
  <defs>
    <style>
      .cls-1 {
        fill: #e06608;
      }
    </style>
  </defs>
  <g id="Layer_1-2" data-name="Layer 1">
    <path class="cls-1" d="m15.46,17.94h15.21c2.03,0,3.3-2.14,2.29-3.85L25.35,1.28c-.48-.79-1.35-1.28-2.29-1.28s-1.81.49-2.29,1.28l-7.61,12.81c-1.01,1.71.26,3.85,2.29,3.85Zm-1.18-3.19L21.87,1.95c.25-.41.71-.66,1.19-.66s.94.25,1.18.65l7.61,12.81c.33.55.12,1.05.01,1.23-.24.42-.69.68-1.2.68h-15.21c-.51,0-.95-.25-1.2-.68-.11-.19-.32-.68.01-1.23Zm-4.02,5.75c-5.67,0-10.25,4.58-10.25,10.25s4.58,10.25,10.25,10.25,10.25-4.58,10.25-10.25-4.58-10.25-10.25-10.25Zm0,19.22c-4.95,0-8.97-4.02-8.97-8.97s4.02-8.97,8.97-8.97,8.97,4.02,8.97,8.97-4.02,8.97-8.97,8.97Zm28.19-17.94h-12.81c-1.41,0-2.56,1.15-2.56,2.56v12.81c0,1.41,1.15,2.56,2.56,2.56h12.81c1.41,0,2.56-1.15,2.56-2.56v-12.81c0-1.41-1.15-2.56-2.56-2.56Zm1.28,15.38c0,.71-.57,1.28-1.28,1.28h-12.81c-.71,0-1.28-.57-1.28-1.28v-12.81c0-.71.57-1.28,1.28-1.28h12.81c.71,0,1.28.57,1.28,1.28v12.81Z"/>
  </g>
</svg>