<?xml version="1.0" encoding="UTF-8"?>
<svg id="Layer_2" data-name="Layer 2" xmlns="http://www.w3.org/2000/svg" viewBox="0 0 41 41" width="41" height="41">
  <defs>
    <style>
      .cls-1 {
        fill: #e06608;
      }
    </style>
  </defs>
  <g id="Layer_1-2" data-name="Layer 1">
    <path class="cls-1" d="m38.99,18.26c.18-.31.08-.7-.23-.88-.31-.18-.7-.08-.88.23-3.58,6.13-10.24,9.93-17.38,9.93-3.68,0-7.23-1.03-10.3-2.85l8.35-14.82s0-.01,0-.02c.6.25,1.26.39,1.94.39s1.34-.14,1.94-.39c0,0,0,.01,0,.02l6.44,11.43c.12.21.34.33.56.33.11,0,.22-.03.31-.08.31-.17.42-.57.24-.87l-6.44-11.43s-.02-.01-.03-.02c1.26-.93,2.09-2.42,2.09-4.11,0-2.83-2.29-5.12-5.12-5.12s-5.12,2.29-5.12,5.12c0,1.69.83,3.17,2.09,4.11,0,.01-.02.01-.03.02l-8.31,14.74c-2.42-1.65-4.5-3.79-6.01-6.38-.18-.31-.57-.41-.88-.23-.31.18-.41.57-.23.88,1.63,2.79,3.88,5.09,6.49,6.85L.08,40.04c-.17.31-.07.7.24.87.1.06.21.08.31.08.22,0,.44-.12.56-.33l8.37-14.86c3.26,1.93,7.02,3.01,10.93,3.01,7.6,0,14.68-4.05,18.49-10.57ZM16.66,5.12c0-2.12,1.72-3.84,3.84-3.84s3.84,1.72,3.84,3.84-1.72,3.84-3.84,3.84-3.84-1.72-3.84-3.84Zm24.26,34.92l-6.51-11.55c-.18-.31-.57-.42-.87-.24-.31.17-.42.57-.24.87l6.51,11.55c.12.21.34.33.56.33.11,0,.22-.03.31-.08.31-.17.42-.57.24-.87Z"/>
  </g>
</svg>