<?xml version="1.0" encoding="UTF-8"?>
<svg id="Layer_2" data-name="Layer 2" xmlns="http://www.w3.org/2000/svg" viewBox="0 0 41 41"  width="41" height="41">
  <defs>
    <style>
      .cls-1 {
        fill: #e06608;
      }
    </style>
  </defs>
  <g id="Layer_1-2" data-name="Layer 1">
    <path class="cls-1" d="m18.2,30.28c-.19-.39-.7-.48-1-.18l-8.19,8.18c-1.74,1.74-4.6,1.91-6.39.23-1.85-1.74-1.89-4.65-.1-6.44l12.05-12.03c.24-.24.24-.63,0-.88l-.03-.03c-.24-.24-.64-.24-.88,0L1.76,31.02c-2.28,2.27-2.39,6.11-.09,8.35,1.12,1.09,2.57,1.63,4.03,1.63s2.96-.56,4.08-1.69l8.31-8.3c.19-.19.23-.48.11-.73,0,0,0,0,0-.01Zm-.38-24.18c.26.32.74.31.98-.02,1.57-2.18,3.87-3.82,6.55-4.46,1.33-.32,3.36-.56,5.48,0l-6.52,6.51v8.54h8.55l6.53-6.52c.43,1.79.42,3.64-.02,5.49-.59,2.46-2.02,4.6-3.94,6.15-.28.23-.29.65-.03.91l.02.02c.22.22.58.25.82.05,2.13-1.72,3.73-4.1,4.38-6.83.51-2.13.48-4.19.02-6.09-.15-.61-.69-.97-1.25-.97-.33,0-.66.12-.92.38l-6.14,6.13h-6.74v-6.73l6.14-6.13c.7-.7.39-1.93-.58-2.16C30.2.12,29.2,0,28.17,0,27.15,0,26.11.12,25.05.37c-2.98.71-5.55,2.52-7.29,4.94-.16.22-.15.53.03.74.01.01.02.03.04.04Zm-12.76,28.5c0,.71.57,1.28,1.28,1.28s1.28-.57,1.28-1.28-.57-1.28-1.28-1.28-1.28.57-1.28,1.28Zm25.79-12.85c-2.36-2.35-6.08-2.47-8.61-.41l-6.23-6.23v-7.02c0-.2-.09-.39-.25-.51L5.99.13c-.25-.2-.61-.17-.84.06L.19,5.15c-.23.23-.25.59-.06.84l7.45,9.77c.12.16.31.25.51.25h7.02l6.23,6.23c-2.06,2.53-1.95,6.25.41,8.61l9.11,9.11c.69.69,1.6,1.03,2.51,1.03s1.81-.35,2.5-1.03l4.11-4.1c1.38-1.38,1.38-3.62,0-5.01l-9.12-9.11Zm-16.12-7.01h-6.33L1.49,5.66,5.66,1.49l9.07,6.92v6.33Zm24.33,20.22l-4.11,4.1c-.88.88-2.32.88-3.2,0l-9.1-9.11c-2.01-2.01-2.01-5.28,0-7.29,2.01-2.01,5.28-2.01,7.29,0l9.11,9.1c.88.89.88,2.32,0,3.2Z"/>
  </g>
</svg>